External Loads File
version=1
nRows=93
nColumns=13
Range=5.000000e-03-10 seconds
endheader
time 	forceRightX 	forceRightY 	forceRightZ 	pointRightX 	pointRightY 	pointRightZ 	forceLeftX 	forceLeftY 	forceLeftZ 	pointLeftX 	pointLeftY 	pointLeftZ 		
7.505000 -36.145416 -40.088542 -0.000000 0.121335 0.395656 -0.125431 -15.928115 674.350519 -0.000000 0.290229 0.201230 -0.366768
7.510000 -44.566927 -49.772229 -0.000000 0.126571 0.404460 -0.125724 -0.016620 681.671390 -0.000000 0.283043 0.199703 -0.366585
7.515000 -54.149043 -59.289881 -0.000000 0.132177 0.412716 -0.126023 25.640139 688.198020 -0.000000 0.275614 0.192338 -0.366332
7.520000 -63.934130 -68.662919 -0.000000 0.138396 0.420709 -0.126416 50.899436 693.224794 -0.000000 0.267852 0.185200 -0.366217
7.525000 -73.490713 -77.456233 -0.000000 0.145195 0.428382 -0.126816 75.314396 696.237810 -0.000000 0.259735 0.178530 -0.366103
7.530000 -82.424608 -85.243656 -0.000000 0.152697 0.435567 -0.127250 98.982595 696.558216 -0.000000 0.251296 0.172428 -0.365990
7.535000 -90.457971 -91.542757 -0.000000 0.161288 0.442335 -0.126966 122.537258 693.356025 -0.000000 0.242686 0.167128 -0.365854
7.540000 -97.005311 -96.222687 -0.000000 0.169840 0.448525 -0.128032 143.803669 686.332680 -0.000000 0.233889 0.162207 -0.365653
7.545000 -102.105743 -98.579305 -0.000000 0.179315 0.454062 -0.127834 165.007465 674.474924 -0.000000 0.224769 0.157976 -0.365586
7.550000 -105.033487 -98.806102 -0.000000 0.188288 0.458979 -0.128692 182.721397 658.161701 -0.000000 0.215491 0.154453 -0.365581
7.555000 -105.876114 -96.501361 -0.000000 0.197527 0.463164 -0.129070 198.712868 636.761098 -0.000000 0.206028 0.151674 -0.365457
7.560000 -104.413382 -91.917092 -0.000000 0.206681 0.466630 -0.129384 211.818258 610.527519 -0.000000 0.196597 0.149632 -0.365238
7.565000 -100.833288 -85.230308 -0.000000 0.215860 0.469425 -0.129661 222.472741 579.336566 -0.000000 0.187077 0.148245 -0.364976
7.570000 -95.377030 -76.891409 -0.000000 0.225078 0.471503 -0.129725 230.188276 543.403515 -0.000000 0.177647 0.147347 -0.364756
7.575000 -88.493148 -67.335433 -0.000000 0.234179 0.472780 -0.129776 234.683064 502.890822 -0.000000 0.168297 0.147317 -0.364582
7.580000 -80.742924 -56.917298 -0.000000 0.243175 0.473483 -0.129770 235.577585 458.049852 -0.000000 0.159117 0.147935 -0.364363
7.585000 -72.765325 -45.803008 -0.000000 0.251975 0.473524 -0.129717 232.576286 409.257859 -0.000000 0.150136 0.149228 -0.364090
7.590000 -65.173272 -34.031785 -0.000000 0.260453 0.472914 -0.129474 225.210264 357.344126 -0.000000 0.141579 0.151222 -0.363868
7.595000 -58.565682 -21.426071 -0.000000 0.268726 0.471543 -0.129347 213.760883 303.221896 -0.000000 0.133452 0.153795 -0.363614
7.600000 -53.373451 -7.761779 -0.000000 0.276692 0.469355 -0.129084 198.610086 248.300655 -0.000000 0.125646 0.157013 -0.363381
7.605000 -49.842245 7.178605 -0.000000 0.284218 0.466430 -0.128747 180.230054 194.501646 -0.000000 0.118230 0.160804 -0.363119
7.610000 -48.067831 23.618732 -0.000000 0.291155 0.462906 -0.128582 159.531033 143.813387 -0.000000 0.111183 0.165125 -0.363093
7.615000 -47.962707 41.808337 -0.000000 0.297781 0.458491 -0.128110 137.860208 97.825854 -0.000000 0.104513 0.169947 -0.362759
7.620000 -49.356022 61.856232 -0.000000 0.303820 0.453285 -0.127605 116.290548 58.056331 -0.000000 0.098127 0.175350 -0.362164
7.625000 -52.126078 83.823950 -0.000000 0.309361 0.447780 -0.127244 95.799157 25.596311 -0.000000 0.092088 0.181176 -0.361563
7.630000 -56.279099 107.890097 -0.000000 0.314138 0.442161 -0.126763 77.225682 1.001617 -0.000000 0.086424 0.187476 -0.360927
7.635000 -61.708204 134.649276 -0.000000 0.318186 0.435398 -0.126386 61.154792 -15.818297 -0.000000 0.081202 0.193974 -0.360371
7.640000 -69.017672 164.744461 -0.000000 0.321485 0.428922 -0.126014 47.971623 -25.090341 -0.000000 0.076410 0.200680 -0.359874
7.645000 -78.335633 199.265788 -0.000000 0.324355 0.422133 -0.125756 37.844235 -27.807005 -0.000000 0.071913 0.207605 -0.359660
7.650000 -91.936923 238.322933 -0.000000 0.326413 0.414758 -0.125838 31.030321 -24.962318 -0.000000 0.067842 0.211750 -0.360208
7.655000 -103.514879 284.736122 -0.000000 0.328211 0.406503 -0.125326 26.819908 -18.885480 -0.000000 0.064050 0.223016 -0.360103
7.660000 -118.648484 335.903121 -0.000000 0.329787 0.397612 -0.124701 25.713832 -10.350979 -0.000000 0.060567 0.231546 -0.360009
7.665000 -134.747259 391.316776 -0.000000 0.331159 0.388034 -0.124114 27.227305 -0.970859 -0.000000 0.057542 0.240332 -0.360091
7.670000 -149.832798 449.219394 -0.000000 0.332458 0.377977 -0.123820 30.905204 8.181147 -0.000000 0.054878 0.249786 -0.360123
7.675000 -162.264456 506.971841 -0.000000 0.333547 0.367196 -0.123399 36.182611 16.457682 -0.000000 0.052861 0.259429 -0.360165
7.680000 -170.590267 561.549448 -0.000000 0.334321 0.356045 -0.123071 42.430586 23.571350 -0.000000 0.051469 0.269166 -0.360247
7.685000 -173.687754 610.070798 -0.000000 0.334648 0.344894 -0.122839 49.069082 29.504515 -0.000000 0.050629 0.279092 -0.360380
7.690000 -172.016007 649.975054 -0.000000 0.334595 0.334213 -0.122564 55.576515 34.461814 -0.000000 0.050424 0.289094 -0.360499
7.695000 -164.447560 680.176244 -0.000000 0.334135 0.323317 -0.122141 61.664629 38.481986 -0.000000 0.050808 0.299011 -0.360580
7.700000 -151.873848 700.043382 -0.000000 0.333358 0.312539 -0.122306 67.084075 41.650362 -0.000000 0.051502 0.308971 -0.358950
7.705000 -134.984611 709.884051 -0.000000 0.332316 0.301996 -0.121959 71.678611 43.895499 -0.000000 0.053345 0.319135 -0.360990
7.710000 -115.347162 710.524424 -0.000000 0.330945 0.291653 -0.122038 75.259939 45.164357 -0.000000 0.055463 0.329224 -0.361172
7.715000 -93.448365 703.460184 -0.000000 0.329001 0.281406 -0.121937 77.709479 45.311339 -0.000000 0.058223 0.339222 -0.361336
7.720000 -66.807854 690.689457 -0.000000 0.326594 0.270725 -0.121535 79.113438 43.874977 -0.000000 0.061617 0.349927 -0.361510
7.725000 -43.230424 673.188086 -0.000000 0.323486 0.260455 -0.121876 78.918990 41.588428 -0.000000 0.065336 0.359330 -0.360929
7.730000 -18.568689 653.170914 -0.000000 0.319933 0.250406 -0.121854 77.352923 37.847310 -0.000000 0.069922 0.369037 -0.360982
7.735000 5.339450 631.997461 -0.000000 0.315787 0.240593 -0.121990 74.244966 32.694847 -0.000000 0.075269 0.378394 -0.361218
7.740000 27.942398 610.866454 -0.000000 0.311161 0.231003 -0.122110 69.456305 25.970768 -0.000000 0.081180 0.387360 -0.361290
7.745000 49.070708 590.706956 -0.000000 0.305935 0.221827 -0.121969 62.798719 17.439085 -0.000000 0.087624 0.395989 -0.361392
7.750000 68.434435 572.246140 -0.000000 0.300271 0.212978 -0.122017 54.012865 6.884038 -0.000000 0.094662 0.404065 -0.361596
7.755000 88.203883 555.695946 -0.000000 0.293783 0.204426 -0.122125 42.803439 -6.040429 -0.000000 0.102255 0.412737 -0.361559
7.760000 104.911479 541.923883 -0.000000 0.287088 0.196061 -0.121858 28.913942 -21.019357 -0.000000 0.110349 0.420139 -0.361708
7.765000 119.790564 531.121104 -0.000000 0.279957 0.188217 -0.121577 12.313999 -37.974014 -0.000000 0.118808 0.427168 -0.361881
7.770000 133.600288 523.322759 -0.000000 0.272381 0.180722 -0.121396 -6.839522 -56.496715 -0.000000 0.127799 0.433711 -0.363231
7.775000 147.044274 518.325464 -0.000000 0.264092 0.173941 -0.121650 -28.124345 -75.858609 -0.000000 0.136887 0.440792 -0.363053
7.780000 158.118848 516.445850 -0.000000 0.256101 0.167762 -0.121026 -50.321810 -95.239666 -0.000000 0.146117 0.446955 -0.362954
7.785000 169.119233 516.482582 -0.000000 0.247388 0.162102 -0.120891 -72.509062 -113.351773 -0.000000 0.155280 0.452820 -0.362574
7.790000 179.545814 517.725076 -0.000000 0.238240 0.157220 -0.120441 -93.185074 -128.903341 -0.000000 0.164174 0.458461 -0.362861
7.795000 189.616439 519.004003 -0.000000 0.229347 0.152198 -0.120785 -111.013830 -140.549151 -0.000000 0.173442 0.463554 -0.363239
7.800000 199.357553 519.058402 -0.000000 0.219986 0.148524 -0.120730 -124.873000 -147.184205 -0.000000 0.182642 0.467971 -0.362725
7.805000 209.185866 516.418102 -0.000000 0.210278 0.145322 -0.120206 -134.168171 -148.076221 -0.000000 0.191972 0.471969 -0.362848
7.810000 216.790632 510.760970 -0.000000 0.201145 0.142878 -0.120500 -138.062659 -143.875542 -0.000000 0.201077 0.475226 -0.362609
7.815000 224.272088 500.096038 -0.000000 0.191671 0.141201 -0.120532 -137.562228 -134.727884 -0.000000 0.210525 0.477976 -0.362993
7.820000 229.331254 484.537198 -0.000000 0.182235 0.140168 -0.120660 -132.929848 -122.354144 -0.000000 0.219433 0.480167 -0.362854
7.825000 232.611801 463.278718 -0.000000 0.172923 0.139671 -0.120789 -125.547660 -107.758848 -0.000000 0.228590 0.481713 -0.363008
7.830000 233.132224 436.687911 -0.000000 0.163878 0.139836 -0.120927 -116.477070 -92.201677 -0.000000 0.237563 0.482213 -0.363514
7.835000 230.629650 405.242390 -0.000000 0.155057 0.140771 -0.121008 -106.888049 -76.391054 -0.000000 0.246359 0.482420 -0.363658
7.840000 224.757993 369.862708 -0.000000 0.146600 0.142166 -0.121080 -97.747692 -60.659361 -0.000000 0.254819 0.482072 -0.363921
7.845000 215.770396 331.449996 -0.000000 0.138428 0.144183 -0.121087 -89.882130 -44.858725 -0.000000 0.262870 0.481139 -0.364088
7.850000 204.011449 291.120554 -0.000000 0.130572 0.146928 -0.121102 -83.814888 -28.668638 -0.000000 0.270524 0.479547 -0.364181
7.855000 189.713438 250.322855 -0.000000 0.123179 0.149910 -0.121073 -79.761212 -11.867325 -0.000000 0.277764 0.477027 -0.364437
7.860000 173.548535 210.344619 -0.000000 0.116463 0.153657 -0.120932 -77.741946 5.705078 -0.000000 0.284694 0.473425 -0.364837
7.865000 156.274645 172.384472 -0.000000 0.109400 0.157807 -0.121072 -77.569881 24.123907 -0.000000 0.291252 0.469314 -0.365245
7.870000 137.706154 138.431455 -0.000000 0.103666 0.162332 -0.120781 -79.198777 43.017905 -0.000000 0.297109 0.464845 -0.365492
7.875000 119.350168 108.718300 -0.000000 0.097871 0.167355 -0.121233 -82.513635 62.929675 -0.000000 0.302497 0.459846 -0.365701
7.880000 101.716960 83.960385 -0.000000 0.092589 0.172851 -0.121266 -87.747370 84.228508 -0.000000 0.307458 0.454401 -0.365816
7.885000 85.498438 64.162788 -0.000000 0.087647 0.178669 -0.121314 -95.157029 107.662563 -0.000000 0.312110 0.448211 -0.366078
7.890000 71.130939 49.066857 -0.000000 0.083056 0.185239 -0.121366 -104.997928 133.954085 -0.000000 0.316273 0.441408 -0.366278
7.895000 58.884432 38.158809 -0.000000 0.078778 0.192033 -0.121419 -117.323719 163.655202 -0.000000 0.320314 0.433852 -0.366258
7.900000 48.823184 30.866696 -0.000000 0.074867 0.199429 -0.121472 -132.073886 196.829175 -0.000000 0.323942 0.425967 -0.366204
7.905000 40.899410 26.531184 -0.000000 0.071377 0.207207 -0.121509 -148.690604 233.197127 -0.000000 0.327300 0.417447 -0.366089
7.910000 34.897496 24.592037 -0.000000 0.068293 0.215333 -0.121594 -166.710043 271.760292 -0.000000 0.330303 0.408697 -0.366105
7.915000 30.708941 24.298280 -0.000000 0.065702 0.223787 -0.121658 -183.495748 312.321898 -0.000000 0.332928 0.397417 -0.366553
7.920000 27.878031 25.417589 -0.000000 0.063530 0.232672 -0.121768 -200.042486 352.184447 -0.000000 0.335505 0.387047 -0.366684
7.925000 26.162318 27.500937 -0.000000 0.061914 0.241699 -0.121853 -215.091538 389.989010 -0.000000 0.337665 0.376452 -0.366944
7.930000 25.290609 30.252552 -0.000000 0.060864 0.250986 -0.121855 -228.073208 424.166451 -0.000000 0.339261 0.365874 -0.366836
7.935000 25.049228 33.417923 -0.000000 0.060354 0.260396 -0.121837 -238.238412 453.721396 -0.000000 0.340347 0.355048 -0.367352
7.940000 25.220802 36.815677 -0.000000 0.060383 0.269869 -0.121949 -245.671075 477.875585 -0.000000 0.341060 0.344186 -0.367626
7.945000 25.629809 40.263047 -0.000000 0.060925 0.279441 -0.121944 -250.552693 496.476590 -0.000000 0.341442 0.333412 -0.367355
7.950000 26.139067 43.556327 -0.000000 0.061972 0.289091 -0.122009 -252.849414 510.037235 -0.000000 0.341253 0.322557 -0.367373
7.955000 26.601266 46.500787 -0.000000 0.063528 0.298828 -0.122095 -252.602630 519.406934 -0.000000 0.340617 0.311677 -0.367391
7.960000 26.839899 48.936216 -0.000000 0.065634 0.308589 -0.122211 -250.006019 525.522547 -0.000000 0.339445 0.300885 -0.367345
7.965000 26.721305 50.725668 -0.000000 0.068282 0.318374 -0.122255 -244.700618 529.560873 -0.000000 0.337737 0.290151 -0.367865
